# xmcd
#
# Track frame offsets:
# 150
# 16598
# 30332
# 47615
# 59175
# 76696
# 92267
# 106508
# 126369
# 141833
# 159491
#
# Disc length: 2324 seconds
#
#
# Revision: 0
# Processed by: cddbd v1.5.2PL0 Copyright (c) Steve Scherf et al.
# Submitted via: FreeRIP 2.80 
#
DISCID=7709120b
DTITLE=Jessee Williams - The Truck Stops Here
DYEAR=2007
DGENRE=Country
TTITLE0=The Truck Stops Here
TTITLE1=Perfect Timing
TTITLE2=Somewhere in San Antone
TTITLE3=Who Said It Wouldn't Last
TTITLE4=When The Whiskey Calls My Name
TTITLE5=Quit While I'm Behind
TTITLE6=Down By The River
TTITLE7=Look Away
TTITLE8=New Man
TTITLE9=Deep In The Heart of This Texan
TTITLE10=If You See Hanna In Louisiana
EXTD=
EXTT0=
EXTT1=
EXTT2=
EXTT3=
EXTT4=
EXTT5=
EXTT6=
EXTT7=
EXTT8=
EXTT9=
EXTT10=
PLAYORDER=
